<svg width="31" height="30" viewBox="0 0 31 30" fill="none" xmlns="http://www.w3.org/2000/svg">
<path d="M2.43945 27.2564V17.4598C2.43945 17.2312 2.6115 17.0396 2.83886 17.018L21.4481 15.1582C21.6386 15.1396 21.6386 14.8616 21.4481 14.8431L2.83886 12.9832C2.6115 12.9616 2.43945 12.77 2.43945 12.5414V2.74485C2.43945 2.41737 2.78048 2.20111 3.07236 2.34631L28.3025 14.6021C28.6343 14.7627 28.6343 15.2416 28.3025 15.4022L3.07543 27.658C2.78048 27.8001 2.43945 27.5839 2.43945 27.2564Z" fill="#4FEF64"/>
<path d="M2.74621 27.2564C2.74621 26.6014 2.74621 25.9433 2.74621 25.2884C2.74621 23.9383 2.74621 22.5882 2.74621 21.2382C2.74621 20.1414 2.74621 19.0447 2.74621 17.9479C2.74621 17.8212 2.74621 17.6946 2.74621 17.5679C2.74621 17.5061 2.73393 17.4258 2.77079 17.3764C2.78923 17.3517 2.81073 17.3455 2.83531 17.3269C2.84146 17.3208 2.93977 17.3084 2.83839 17.3238C2.84146 17.3238 2.84453 17.3238 2.8476 17.3238C2.86296 17.3208 2.87525 17.3208 2.89062 17.3208C2.95821 17.3146 3.02273 17.3084 3.09032 17.3022C3.76624 17.2343 4.44215 17.1663 5.11807 17.0983C6.2702 16.984 7.42234 16.8666 8.57447 16.7523C9.94166 16.6164 11.3119 16.4804 12.6791 16.3414C14.0156 16.2086 15.3521 16.0757 16.6885 15.9398C17.7424 15.8347 18.7931 15.7297 19.8469 15.6247C20.3631 15.5721 20.8823 15.5227 21.3985 15.4702C21.5306 15.4578 21.6596 15.4331 21.761 15.3343C21.9576 15.1396 21.9392 14.7998 21.7211 14.6299C21.635 14.565 21.5459 14.5434 21.4415 14.531C21.3094 14.5156 21.1773 14.5063 21.0482 14.4908C20.2986 14.4167 19.5489 14.3395 18.7993 14.2653C17.6041 14.1448 16.409 14.0274 15.2169 13.9069C13.8374 13.7679 12.461 13.632 11.0815 13.493C9.76654 13.3632 8.45465 13.2304 7.13968 13.1006C6.13809 13.0017 5.13651 12.8998 4.13799 12.8009C3.71093 12.7577 3.27773 12.733 2.85375 12.6712C2.85067 12.6712 2.85067 12.6712 2.8476 12.6712C2.89369 12.6773 2.89062 12.6928 2.84453 12.6681C2.80766 12.6465 2.77694 12.6248 2.76158 12.5816C2.75236 12.5569 2.7585 12.5383 2.75543 12.5136C2.75236 12.4302 2.75543 12.3437 2.75543 12.2603C2.75543 11.8587 2.75543 11.457 2.75543 11.0554C2.75543 9.75166 2.75543 8.45101 2.75543 7.14728C2.75543 5.95476 2.75543 4.75915 2.75543 3.56663C2.75543 3.30403 2.75236 3.03834 2.75543 2.77574C2.7585 2.61818 2.83839 2.57184 2.97971 2.63362C3.33611 2.79118 3.68635 2.97655 4.0366 3.14647C4.76782 3.50175 5.49597 3.85704 6.22719 4.21232C7.23799 4.70354 8.2488 5.19476 9.2596 5.68598C10.4425 6.26061 11.6253 6.83524 12.8082 7.40988C14.0648 8.02158 15.3214 8.6302 16.5779 9.24191C17.81 9.84126 19.045 10.4406 20.2771 11.04C21.377 11.5744 22.4738 12.1089 23.5737 12.6403C24.4432 13.0635 25.3096 13.4837 26.179 13.9069C26.7136 14.1665 27.2513 14.4291 27.7859 14.6886C27.8965 14.7442 28.0102 14.7967 28.1208 14.8523C28.13 14.8585 28.1392 14.8616 28.1484 14.8647C28.1515 14.8647 28.1515 14.8678 28.1546 14.8678C28.1976 14.8894 28.2252 14.9172 28.2283 14.9203C28.2836 15.0037 28.2682 15.0747 28.1423 15.1396C27.8504 15.291 27.5524 15.4269 27.2574 15.5691C26.5723 15.9027 25.8841 16.2364 25.199 16.57C24.222 17.0458 23.245 17.5185 22.2679 17.9943C21.0974 18.5627 19.9299 19.1312 18.7593 19.6996C17.5058 20.3082 16.2553 20.9168 15.0018 21.5255C13.7637 22.1279 12.5255 22.7273 11.2874 23.3297C10.1598 23.8765 9.03532 24.4233 7.90777 24.9702C7.0045 25.4089 6.09815 25.8476 5.19488 26.2894C4.60806 26.5736 4.02431 26.8578 3.43749 27.142C3.29924 27.21 3.16098 27.2749 3.02273 27.3429C2.99508 27.3552 2.96742 27.3738 2.9367 27.3861C2.84146 27.417 2.75236 27.3645 2.74621 27.2564C2.72778 26.8609 2.11331 26.8578 2.13174 27.2564C2.15632 27.8279 2.71549 28.1585 3.22857 27.9237C3.24701 27.9144 3.26544 27.9051 3.28388 27.899C3.40984 27.8372 3.53888 27.7754 3.66485 27.7136C4.23323 27.4386 4.80162 27.1606 5.36693 26.8856C6.26406 26.45 7.15811 26.0144 8.05524 25.5788C9.17665 25.0351 10.2981 24.4882 11.4195 23.9445C12.6668 23.339 13.9173 22.7303 15.1647 22.1248C16.4305 21.51 17.6994 20.8921 18.9652 20.2773C20.1419 19.7058 21.3186 19.1342 22.4953 18.5627C23.4846 18.0838 24.4708 17.6019 25.4601 17.123C26.1575 16.7832 26.855 16.4464 27.5524 16.1066C27.8504 15.9614 28.1515 15.8255 28.4434 15.6741C28.981 15.396 28.9841 14.6113 28.4464 14.3302C28.3604 14.2839 28.2713 14.2437 28.1822 14.2004C27.6784 13.9564 27.1745 13.7123 26.6706 13.4652C25.8227 13.0512 24.9716 12.6403 24.1236 12.2263C23.0268 11.6949 21.93 11.1604 20.8332 10.6291C19.6011 10.0297 18.3691 9.43345 17.1371 8.8341C15.8652 8.21622 14.5932 7.59833 13.3243 6.98045C12.123 6.39655 10.9187 5.81264 9.71738 5.22874C8.69122 4.73134 7.66812 4.23395 6.64196 3.73346C5.8923 3.36891 5.14572 3.00436 4.39607 2.64289C4.02739 2.46371 3.65563 2.28452 3.28695 2.10533C3.26544 2.09606 3.24701 2.08371 3.2255 2.07444C2.77694 1.86745 2.22392 2.10533 2.14403 2.62436C2.11024 2.83444 2.13174 3.05996 2.13174 3.27314C2.13174 4.39151 2.13174 5.51297 2.13174 6.63134C2.13174 7.97833 2.13174 9.32841 2.13174 10.6754C2.13174 11.1388 2.13174 11.6022 2.13174 12.0656C2.13174 12.3066 2.09795 12.597 2.19012 12.8226C2.30687 13.113 2.56187 13.2613 2.85989 13.2952C2.91212 13.3014 2.96742 13.3045 3.01965 13.3107C3.26237 13.3354 3.50509 13.3601 3.7478 13.3848C4.66644 13.4775 5.58814 13.5671 6.50677 13.6598C7.79409 13.7895 9.07833 13.9162 10.3656 14.046C11.7666 14.185 13.1646 14.3271 14.5656 14.4661C15.816 14.5897 17.0665 14.7164 18.3138 14.8399C19.1526 14.9234 19.9883 15.0068 20.827 15.0902C21.0144 15.1087 21.1988 15.1273 21.3862 15.1458C21.4046 15.1489 21.42 15.1489 21.4384 15.152C21.4415 15.152 21.4446 15.1551 21.4476 15.152C21.3493 15.1767 21.2448 15.0222 21.3032 14.9326C21.3555 14.8492 21.5306 14.843 21.377 14.8585C20.827 14.9141 20.2771 14.9697 19.7271 15.0222C18.6426 15.1304 17.555 15.2385 16.4704 15.3466C15.1155 15.4825 13.7606 15.6185 12.4057 15.7513C11.0293 15.8873 9.65594 16.0263 8.27952 16.1622C7.1489 16.2765 6.0152 16.3877 4.88457 16.5021C4.25781 16.5638 3.63105 16.6287 3.00429 16.6905C2.95513 16.6967 2.90598 16.6998 2.85989 16.706C2.52808 16.743 2.23006 16.9469 2.15632 17.293C2.11024 17.5092 2.13789 17.7533 2.13789 17.9726C2.13789 19.091 2.13789 20.2125 2.13789 21.3308C2.13789 22.684 2.13789 24.0372 2.13789 25.3903C2.13789 26.0113 2.13789 26.6354 2.13789 27.2564C2.13174 27.6549 2.74621 27.6549 2.74621 27.2564Z" fill="#4FEF64"/>
</svg>
